<svg width="60" height="62" viewBox="0 0 60 62" fill="none" xmlns="http://www.w3.org/2000/svg">
<g filter="url(#filter0_dd_1_263)">
<rect x="5" y="3" width="49.4628" height="49.4628" rx="24.7314" fill="#374151"/>
</g>
<path d="M25.5954 29.6933L25.0307 31.778L22.9667 31.8212C22.3499 30.6898 22 29.3954 22 28.0199C22 26.6898 22.3271 25.4355 22.907 24.3311H22.9074L24.7449 24.6642L25.5499 26.4703C25.3814 26.956 25.2896 27.4774 25.2896 28.0199C25.2897 28.6087 25.3975 29.1729 25.5954 29.6933Z" fill="#FBBB00"/>
<path d="M38.0816 26.5208C38.1748 27.006 38.2233 27.5072 38.2233 28.0195C38.2233 28.5938 38.1623 29.1541 38.0459 29.6945C37.6511 31.5335 36.6193 33.1393 35.19 34.2757L35.1895 34.2752L32.875 34.1584L32.5475 32.1361C33.4959 31.5859 34.2371 30.7251 34.6275 29.6945H30.29V26.5208H34.6908H38.0816Z" fill="#518EF8"/>
<path d="M35.1892 34.274L35.1896 34.2744C33.7995 35.3793 32.0337 36.0404 30.1114 36.0404C27.0223 36.0404 24.3366 34.333 22.9666 31.8205L25.5952 29.6926C26.2803 31.5005 28.0439 32.7874 30.1114 32.7874C31.0001 32.7874 31.8327 32.5499 32.5471 32.1351L35.1892 34.274Z" fill="#28B446"/>
<path d="M35.2894 21.8465L32.6616 23.9737C31.9222 23.5167 31.0482 23.2527 30.1118 23.2527C27.9975 23.2527 26.2009 24.5985 25.5502 26.4711L22.9077 24.332H22.9072C24.2572 21.7583 26.9768 20 30.1118 20C32.08 20 33.8846 20.6932 35.2894 21.8465Z" fill="#F14336"/>
<defs>
<filter id="filter0_dd_1_263" x="0" y="0" width="59.4628" height="61.4629" filterUnits="userSpaceOnUse" color-interpolation-filters="sRGB">
<feFlood flood-opacity="0" result="BackgroundImageFix"/>
<feColorMatrix in="SourceAlpha" type="matrix" values="0 0 0 0 0 0 0 0 0 0 0 0 0 0 0 0 0 0 127 0" result="hardAlpha"/>
<feMorphology radius="1" operator="erode" in="SourceAlpha" result="effect1_dropShadow_1_263"/>
<feOffset dy="4"/>
<feGaussianBlur stdDeviation="3"/>
<feColorMatrix type="matrix" values="0 0 0 0 0 0 0 0 0 0 0 0 0 0 0 0 0 0 0.1 0"/>
<feBlend mode="normal" in2="BackgroundImageFix" result="effect1_dropShadow_1_263"/>
<feColorMatrix in="SourceAlpha" type="matrix" values="0 0 0 0 0 0 0 0 0 0 0 0 0 0 0 0 0 0 127 0" result="hardAlpha"/>
<feOffset dy="2"/>
<feGaussianBlur stdDeviation="2.5"/>
<feColorMatrix type="matrix" values="0 0 0 0 0 0 0 0 0 0 0 0 0 0 0 0 0 0 0.06 0"/>
<feBlend mode="normal" in2="effect1_dropShadow_1_263" result="effect2_dropShadow_1_263"/>
<feBlend mode="normal" in="SourceGraphic" in2="effect2_dropShadow_1_263" result="shape"/>
</filter>
</defs>
</svg>
