<svg width="102" height="104" viewBox="0 0 102 104" fill="none" xmlns="http://www.w3.org/2000/svg">
<g filter="url(#filter0_dd_1_367)">
<rect x="5" y="3" width="91.4146" height="91.2569" rx="45.6284" fill="white"/>
</g>
<path d="M60.3025 37.3054C60.3802 37.3671 60.4535 37.4373 60.5305 37.5008L60.531 37.4987C60.4607 37.4285 60.3904 37.3582 60.3025 37.3054Z" fill="#FF7CB9"/>
<path d="M65.9831 49.2101C65.9655 49.821 65.9129 50.4145 65.8249 51.008L61.4798 55.4591L57.0703 62.4412C56.5257 62.6855 55.946 62.9124 55.3486 63.087L50.9917 59.0025L50.0431 58.1122L43.2618 61.5858C42.6293 61.2019 42.0145 60.7829 41.4523 60.3116L39.7833 52.4044L36.0531 47.5169C36.1233 46.9235 36.2112 46.3474 36.3341 45.7714L42.6117 41.4775L43.9469 35.822C44.4915 35.5252 45.0712 35.2634 45.651 35.054L50.9917 36.6598L53.0999 37.3057L60.5311 37.4977C61.0405 37.9166 61.5501 38.3704 61.9893 38.8767L61.919 45.1256L65.9831 49.2101Z" fill="#FA5E97"/>
<path d="M65.9829 49.2096C65.9653 49.8205 65.9127 50.414 65.8247 51.0075L61.4796 55.4586L57.0701 62.4407C56.5255 62.685 55.9458 62.9119 55.3484 63.0865L50.9915 59.0019V36.6593L53.0997 37.3051L60.5309 37.4972C61.0403 37.9161 61.5499 38.3699 61.9891 38.8762L61.9188 45.1251L65.9829 49.2096Z" fill="#D94F88"/>
<path d="M46.3185 45.5082C47.759 45.2289 49.1646 44.8449 50.4996 44.426C48.7254 41.1969 46.5293 38.282 43.9468 35.8209C40.1522 37.8456 37.265 41.4587 36.334 45.77C39.1274 46.3285 42.5765 46.2588 46.3185 45.5082Z" fill="#FF7CB9"/>
<path d="M60.5308 37.4967L60.2849 38.4567C59.8984 39.9928 56.6308 42.1921 52.3442 43.7805L52.1509 43.8503C51.782 43.1696 51.3955 42.4888 50.9915 41.8429C49.4806 39.3644 47.6711 37.0778 45.6508 35.0531C47.3022 34.4073 49.1116 34 50.9914 34C54.3468 34 57.474 35.1753 59.9687 37.0429C60.1619 37.1825 60.3552 37.3222 60.5308 37.4967Z" fill="#FF7CB9"/>
<path d="M52.836 49.6106C52.2036 49.8375 51.5887 50.082 50.9914 50.3612C45.8966 52.6305 42.102 56.401 41.5046 59.9969C41.4871 60.1016 41.4695 60.2063 41.4519 60.3111C38.1667 57.5879 36 53.4859 36 48.895C36 48.4236 36.0176 47.9698 36.0528 47.5159C37.4406 47.7778 38.9046 47.8825 40.2749 47.8825C42.6642 47.8825 44.9304 47.5683 46.6696 47.2192C48.163 46.9225 49.6035 46.5384 50.9914 46.102C51.0968 46.0672 51.2022 46.0323 51.3076 45.9973C51.8698 47.1669 52.3792 48.3713 52.836 49.6106Z" fill="#FF7CB9"/>
<path d="M55.348 63.0859C53.9778 63.5048 52.5021 63.7899 50.9912 63.7899C48.1628 63.7899 45.51 62.9463 43.2612 61.5847C43.1734 61.1658 43.1734 60.7294 43.2438 60.2756C43.7004 57.5003 46.8628 54.3584 50.9912 52.2987C51.7642 51.9146 52.5724 51.548 53.4156 51.2513C54.6102 54.9868 55.2778 58.9839 55.348 63.0859Z" fill="#FF7CB9"/>
<path d="M65.8243 51.0074C65.0865 56.1217 61.6725 60.3981 57.0696 62.4404C56.9466 58.3909 56.2439 54.4461 55.0668 50.7282C59.0021 49.6459 62.7324 49.7681 65.8243 51.0074Z" fill="#FF637B"/>
<path d="M65.9824 48.8953V49.2095C62.627 47.9701 58.6507 47.9178 54.5047 49.0873C54.0479 47.8306 53.5209 46.6087 52.9587 45.4217C55.8398 44.3395 61.2333 41.8608 61.9886 38.876C64.4306 41.5116 65.9824 45.0376 65.9824 48.8953Z" fill="#FF637B"/>
<path d="M52.8362 49.6119C52.2037 49.8389 51.5889 50.0834 50.9915 50.3627V46.1021C51.0969 46.0672 51.2023 46.0323 51.3077 45.9973C51.8699 47.1673 52.3793 48.3722 52.8362 49.6119Z" fill="#FA5E97"/>
<path d="M53.4159 51.2513C54.6105 54.9867 55.2781 58.9839 55.3483 63.0859C53.9781 63.5048 52.5024 63.7899 50.9915 63.7899V52.2987C51.7645 51.9146 52.5727 51.5481 53.4159 51.2513Z" fill="#FA5E97"/>
<path d="M52.1509 43.8506C51.7821 43.1698 51.3955 42.489 50.9915 41.8431V34C54.3469 34 57.4741 35.1753 59.9688 37.043C60.162 37.1827 60.3553 37.3223 60.5309 37.4968L60.285 38.4568C59.8986 39.9929 56.6309 42.1923 52.3443 43.7807L52.1509 43.8506Z" fill="#FA5E97"/>
<path d="M65.8243 51.0074C65.0865 56.1217 61.6725 60.3981 57.0696 62.4404C56.9466 58.3909 56.2439 54.4461 55.0668 50.7282C59.0021 49.6459 62.7324 49.7681 65.8243 51.0074Z" fill="#FA5E97"/>
<path d="M65.9824 48.8953V49.2095C62.627 47.9701 58.6507 47.9178 54.5047 49.0873C54.0479 47.8306 53.5209 46.6087 52.9587 45.4217C55.8398 44.3395 61.2333 41.8608 61.9886 38.876C64.4306 41.5116 65.9824 45.0376 65.9824 48.8953Z" fill="#FA5E97"/>
<defs>
<filter id="filter0_dd_1_367" x="0" y="0" width="101.415" height="103.257" filterUnits="userSpaceOnUse" color-interpolation-filters="sRGB">
<feFlood flood-opacity="0" result="BackgroundImageFix"/>
<feColorMatrix in="SourceAlpha" type="matrix" values="0 0 0 0 0 0 0 0 0 0 0 0 0 0 0 0 0 0 127 0" result="hardAlpha"/>
<feMorphology radius="1" operator="erode" in="SourceAlpha" result="effect1_dropShadow_1_367"/>
<feOffset dy="4"/>
<feGaussianBlur stdDeviation="3"/>
<feColorMatrix type="matrix" values="0 0 0 0 0 0 0 0 0 0 0 0 0 0 0 0 0 0 0.1 0"/>
<feBlend mode="normal" in2="BackgroundImageFix" result="effect1_dropShadow_1_367"/>
<feColorMatrix in="SourceAlpha" type="matrix" values="0 0 0 0 0 0 0 0 0 0 0 0 0 0 0 0 0 0 127 0" result="hardAlpha"/>
<feOffset dy="2"/>
<feGaussianBlur stdDeviation="2.5"/>
<feColorMatrix type="matrix" values="0 0 0 0 0 0 0 0 0 0 0 0 0 0 0 0 0 0 0.06 0"/>
<feBlend mode="normal" in2="effect1_dropShadow_1_367" result="effect2_dropShadow_1_367"/>
<feBlend mode="normal" in="SourceGraphic" in2="effect2_dropShadow_1_367" result="shape"/>
</filter>
</defs>
</svg>
