<svg width="102" height="104" viewBox="0 0 102 104" fill="none" xmlns="http://www.w3.org/2000/svg">
<g filter="url(#filter0_dd_1_324)">
<rect x="5" y="3" width="91.4146" height="91.2569" rx="45.6284" fill="white"/>
</g>
<path d="M64.8931 42.754C64.8202 41.1685 64.5667 40.0857 64.1961 39.1384C63.8198 38.1445 63.2296 37.2442 62.467 36.5001C61.7183 35.7423 60.8119 35.1557 59.8116 34.7816C58.8579 34.4137 57.7684 34.1621 56.1726 34.09C54.5738 34.0173 54.063 34 49.9916 34C45.9203 34 45.4095 34.0173 43.8107 34.0895C42.2149 34.1621 41.1254 34.4139 40.1717 34.7821C39.1713 35.156 38.2652 35.7423 37.5163 36.5001C36.7536 37.244 36.1632 38.1443 35.7867 39.1382C35.4163 40.0857 35.1631 41.1685 35.0906 42.7538C35.0174 44.3425 35 44.8498 35 48.8949C35 52.9403 35.0174 53.4479 35.0906 55.0363C35.1633 56.6216 35.4168 57.7044 35.7874 58.652C36.1637 59.6456 36.7539 60.5461 37.5165 61.29C38.2652 62.0478 39.1716 62.6342 40.1719 63.008C41.1254 63.3765 42.2151 63.6281 43.8109 63.7006C45.4099 63.7731 45.9205 63.7901 49.9919 63.7901C54.0632 63.7901 54.574 63.7731 56.1728 63.7006C57.7686 63.6281 58.8582 63.3765 59.8118 63.008C61.8256 62.2344 63.4175 60.6527 64.1961 58.652C64.5669 57.7044 64.8202 56.6216 64.8931 55.0363C64.9659 53.4476 64.9833 52.9403 64.9833 48.8952C64.9833 44.8498 64.9659 44.3425 64.8931 42.754ZM62.1945 54.9143C62.128 56.3666 61.8837 57.1553 61.6785 57.6801C61.1741 58.9792 60.1408 60.0059 58.8332 60.507C58.305 60.7109 57.5112 60.9536 56.0495 61.0198C54.469 61.0916 53.9948 61.1066 49.9916 61.1066C45.9882 61.1066 45.5142 61.0916 43.9335 61.0198C42.472 60.9536 41.6783 60.7109 41.1498 60.507C40.4988 60.2682 39.9098 59.8875 39.4262 59.3927C38.9282 58.9122 38.545 58.3272 38.3046 57.6801C38.0994 57.1553 37.8551 56.3666 37.7885 54.9143C37.7165 53.3438 37.7011 52.8726 37.7011 48.8954C37.7011 44.918 37.7165 44.447 37.7885 42.8763C37.8553 41.424 38.0994 40.6353 38.3046 40.1105C38.545 39.4634 38.9284 38.8782 39.4262 38.3977C39.9098 37.9029 40.4988 37.5222 41.1501 37.2835C41.6783 37.0794 42.472 36.8369 43.9338 36.7706C45.5145 36.699 45.9887 36.6837 49.9916 36.6837H49.9914C53.9944 36.6837 54.4686 36.699 56.0495 36.7708C57.5112 36.8369 58.3048 37.0797 58.8332 37.2835C59.4843 37.5224 60.0733 37.9031 60.5569 38.3977C61.0549 38.8782 61.438 39.4634 61.6782 40.1105C61.8837 40.6353 62.128 41.424 62.1945 42.8763C62.2666 44.4468 62.2819 44.918 62.2819 48.8952C62.2819 52.8726 62.2668 53.3435 62.1945 54.9143Z" fill="url(#paint0_linear_1_324)"/>
<path d="M49.9915 41.2458C45.7398 41.2458 42.2932 44.6706 42.2932 48.8949C42.2932 53.1192 45.7398 56.5437 49.9915 56.5437C54.2433 56.5437 57.6899 53.1192 57.6899 48.8949C57.6899 44.6706 54.2433 41.2458 49.9915 41.2458ZM49.9915 53.8599C47.2318 53.8597 44.9943 51.6368 44.9946 48.8947C44.9946 46.1527 47.2318 43.9296 49.9917 43.9296C52.7516 43.9299 54.9888 46.1527 54.9888 48.8947C54.9888 51.6368 52.7514 53.8599 49.9915 53.8599Z" fill="url(#paint1_linear_1_324)"/>
<path d="M59.7935 40.9449C59.7935 41.9324 58.988 42.733 57.9946 42.733C57.0009 42.733 56.1954 41.9324 56.1954 40.9449C56.1954 39.9572 57.0009 39.1566 57.9946 39.1566C58.988 39.1566 59.7935 39.9572 59.7935 40.9449Z" fill="url(#paint2_linear_1_324)"/>
<defs>
<filter id="filter0_dd_1_324" x="0" y="0" width="101.415" height="103.257" filterUnits="userSpaceOnUse" color-interpolation-filters="sRGB">
<feFlood flood-opacity="0" result="BackgroundImageFix"/>
<feColorMatrix in="SourceAlpha" type="matrix" values="0 0 0 0 0 0 0 0 0 0 0 0 0 0 0 0 0 0 127 0" result="hardAlpha"/>
<feMorphology radius="1" operator="erode" in="SourceAlpha" result="effect1_dropShadow_1_324"/>
<feOffset dy="4"/>
<feGaussianBlur stdDeviation="3"/>
<feColorMatrix type="matrix" values="0 0 0 0 0 0 0 0 0 0 0 0 0 0 0 0 0 0 0.1 0"/>
<feBlend mode="normal" in2="BackgroundImageFix" result="effect1_dropShadow_1_324"/>
<feColorMatrix in="SourceAlpha" type="matrix" values="0 0 0 0 0 0 0 0 0 0 0 0 0 0 0 0 0 0 127 0" result="hardAlpha"/>
<feOffset dy="2"/>
<feGaussianBlur stdDeviation="2.5"/>
<feColorMatrix type="matrix" values="0 0 0 0 0 0 0 0 0 0 0 0 0 0 0 0 0 0 0.06 0"/>
<feBlend mode="normal" in2="effect1_dropShadow_1_324" result="effect2_dropShadow_1_324"/>
<feBlend mode="normal" in="SourceGraphic" in2="effect2_dropShadow_1_324" result="shape"/>
</filter>
<linearGradient id="paint0_linear_1_324" x1="37.5161" y1="61.2902" x2="62.3061" y2="36.3397" gradientUnits="userSpaceOnUse">
<stop stop-color="#FFD600"/>
<stop offset="0.5" stop-color="#FF0100"/>
<stop offset="1" stop-color="#D800B9"/>
</linearGradient>
<linearGradient id="paint1_linear_1_324" x1="44.548" y1="54.3034" x2="55.365" y2="43.4165" gradientUnits="userSpaceOnUse">
<stop stop-color="#FF6400"/>
<stop offset="0.5" stop-color="#FF0100"/>
<stop offset="1" stop-color="#FD0056"/>
</linearGradient>
<linearGradient id="paint2_linear_1_324" x1="56.7224" y1="42.2092" x2="59.2512" y2="39.6652" gradientUnits="userSpaceOnUse">
<stop stop-color="#F30072"/>
<stop offset="1" stop-color="#E50097"/>
</linearGradient>
</defs>
</svg>
