<svg width="102" height="104" viewBox="0 0 102 104" fill="none" xmlns="http://www.w3.org/2000/svg">
<g filter="url(#filter0_dd_1_342)">
<rect x="5" y="3" width="91.4146" height="91.2569" rx="45.6284" fill="white"/>
</g>
<path d="M64.8931 41.7539C64.8201 40.1684 64.5667 39.0857 64.1961 38.1384C63.8198 37.1445 63.2296 36.2442 62.4669 35.5001C61.7182 34.7423 60.8119 34.1557 59.8116 33.7816C58.8579 33.4137 57.7683 33.1621 56.1725 33.09C54.5738 33.0173 54.063 33 49.9916 33C45.9202 33 45.4094 33.0173 43.8107 33.0895C42.2149 33.1621 41.1253 33.4139 40.1717 33.7821C39.1713 34.1559 38.2652 34.7423 37.5163 35.5001C36.7536 36.244 36.1632 37.1442 35.7867 38.1381C35.4163 39.0857 35.1631 40.1684 35.0906 41.7537C35.0174 43.3424 35 43.8497 35 47.8948C35 51.9402 35.0174 52.4477 35.0906 54.0362C35.1633 55.6214 35.4168 56.7042 35.7874 57.6517C36.1637 58.6454 36.7539 59.5459 37.5165 60.2898C38.2652 61.0475 39.1716 61.6339 40.1719 62.0078C41.1253 62.3762 42.2151 62.6278 43.8109 62.7003C45.4099 62.7728 45.9205 62.7899 49.9918 62.7899C54.0632 62.7899 54.574 62.7728 56.1728 62.7003C57.7685 62.6278 58.8581 62.3762 59.8118 62.0078C61.8255 61.2341 63.4174 59.6525 64.1961 57.6517C64.5669 56.7042 64.8201 55.6214 64.8931 54.0362C64.9658 52.4475 64.9832 51.9402 64.9832 47.895C64.9832 43.8497 64.9658 43.3424 64.8931 41.7539ZM62.1945 53.9141C62.1279 55.3664 61.8836 56.1551 61.6784 56.6799C61.174 57.979 60.1407 59.0056 58.8332 59.5068C58.305 59.7107 57.5112 59.9534 56.0495 60.0195C54.469 60.0914 53.9948 60.1064 49.9916 60.1064C45.9882 60.1064 45.5142 60.0914 43.9335 60.0195C42.472 59.9534 41.6782 59.7107 41.1498 59.5068C40.4988 59.2679 39.9097 58.8872 39.4262 58.3924C38.9282 57.912 38.545 57.327 38.3046 56.6799C38.0994 56.1551 37.8551 55.3664 37.7885 53.9141C37.7165 52.3436 37.7011 51.8724 37.7011 47.8953C37.7011 43.9179 37.7165 43.4469 37.7885 41.8762C37.8553 40.4239 38.0994 39.6352 38.3046 39.1104C38.545 38.4634 38.9284 37.8781 39.4262 37.3976C39.9097 36.9029 40.4988 36.5222 41.15 36.2835C41.6782 36.0794 42.472 35.8369 43.9338 35.7705C45.5144 35.699 45.9886 35.6837 49.9916 35.6837H49.9914C53.9943 35.6837 54.4685 35.699 56.0495 35.7708C57.5112 35.8369 58.3047 36.0796 58.8332 36.2835C59.4842 36.5224 60.0732 36.9031 60.5568 37.3976C61.0548 37.8781 61.438 38.4634 61.6782 39.1104C61.8836 39.6352 62.1279 40.4239 62.1945 41.8762C62.2665 43.4467 62.2819 43.9179 62.2819 47.895C62.2819 51.8724 62.2668 52.3434 62.1945 53.9141Z" fill="url(#paint0_linear_1_342)"/>
<path d="M49.9913 40.2461C45.7397 40.2461 42.2931 43.6708 42.2931 47.895C42.2931 52.1192 45.7397 55.5437 49.9913 55.5437C54.2431 55.5437 57.6898 52.1192 57.6898 47.895C57.6898 43.6708 54.2431 40.2461 49.9913 40.2461ZM49.9913 52.8599C47.2316 52.8597 44.9942 50.6369 44.9944 47.8948C44.9944 45.1529 47.2316 42.9298 49.9915 42.9298C52.7514 42.9301 54.9886 45.1529 54.9886 47.8948C54.9886 50.6369 52.7512 52.8599 49.9913 52.8599Z" fill="url(#paint1_linear_1_342)"/>
<path d="M59.7934 39.9448C59.7934 40.9322 58.988 41.7328 57.9945 41.7328C57.0008 41.7328 56.1953 40.9322 56.1953 39.9448C56.1953 38.9571 57.0008 38.1566 57.9945 38.1566C58.988 38.1566 59.7934 38.9571 59.7934 39.9448Z" fill="url(#paint2_linear_1_342)"/>
<defs>
<filter id="filter0_dd_1_342" x="0" y="0" width="101.415" height="103.257" filterUnits="userSpaceOnUse" color-interpolation-filters="sRGB">
<feFlood flood-opacity="0" result="BackgroundImageFix"/>
<feColorMatrix in="SourceAlpha" type="matrix" values="0 0 0 0 0 0 0 0 0 0 0 0 0 0 0 0 0 0 127 0" result="hardAlpha"/>
<feMorphology radius="1" operator="erode" in="SourceAlpha" result="effect1_dropShadow_1_342"/>
<feOffset dy="4"/>
<feGaussianBlur stdDeviation="3"/>
<feColorMatrix type="matrix" values="0 0 0 0 0 0 0 0 0 0 0 0 0 0 0 0 0 0 0.1 0"/>
<feBlend mode="normal" in2="BackgroundImageFix" result="effect1_dropShadow_1_342"/>
<feColorMatrix in="SourceAlpha" type="matrix" values="0 0 0 0 0 0 0 0 0 0 0 0 0 0 0 0 0 0 127 0" result="hardAlpha"/>
<feOffset dy="2"/>
<feGaussianBlur stdDeviation="2.5"/>
<feColorMatrix type="matrix" values="0 0 0 0 0 0 0 0 0 0 0 0 0 0 0 0 0 0 0.06 0"/>
<feBlend mode="normal" in2="effect1_dropShadow_1_342" result="effect2_dropShadow_1_342"/>
<feBlend mode="normal" in="SourceGraphic" in2="effect2_dropShadow_1_342" result="shape"/>
</filter>
<linearGradient id="paint0_linear_1_342" x1="37.5161" y1="60.2899" x2="62.3058" y2="35.3395" gradientUnits="userSpaceOnUse">
<stop stop-color="#FFD600"/>
<stop offset="0.5" stop-color="#FF0100"/>
<stop offset="1" stop-color="#D800B9"/>
</linearGradient>
<linearGradient id="paint1_linear_1_342" x1="44.5479" y1="53.3034" x2="55.3647" y2="42.4166" gradientUnits="userSpaceOnUse">
<stop stop-color="#FF6400"/>
<stop offset="0.5" stop-color="#FF0100"/>
<stop offset="1" stop-color="#FD0056"/>
</linearGradient>
<linearGradient id="paint2_linear_1_342" x1="56.7223" y1="41.209" x2="59.2509" y2="38.6649" gradientUnits="userSpaceOnUse">
<stop stop-color="#F30072"/>
<stop offset="1" stop-color="#E50097"/>
</linearGradient>
</defs>
</svg>
