<svg width="102" height="104" viewBox="0 0 102 104" fill="none" xmlns="http://www.w3.org/2000/svg">
<g filter="url(#filter0_dd_1_356)">
<rect x="5" y="3" width="91.4146" height="91.2569" rx="45.6284" fill="white"/>
</g>
<path d="M40.2232 60.3099H58.0368L57.186 57.5729C57.3122 57.6821 64.4843 63.7904 64.4843 63.7904V37.0721C64.3994 35.4113 62.9602 34 61.1762 34L40.2294 34.0037C38.4467 34.0037 37 35.4175 37 37.0783V57.2365C37 58.9879 38.4442 60.3099 40.2232 60.3099ZM53.4007 41.0541L53.3594 41.069L53.3744 41.0541H53.4007ZM43.8673 42.6293C46.1573 40.9734 48.2798 41.0529 48.2798 41.0529L48.451 41.2204C45.6488 41.8845 44.3783 43.1283 44.3783 43.1283C44.5082 43.101 50.1663 39.8575 57.0223 43.2102C57.0223 43.2102 55.7493 42.0471 53.1196 41.3024L53.3519 41.0752C53.7155 41.0765 55.6394 41.1435 57.6982 42.6392C57.6982 42.6392 60.0019 46.5492 60.0019 51.3529C59.9257 51.261 58.5727 53.4209 55.0909 53.4953C55.0909 53.4953 54.5013 52.8325 54.0815 52.2541C56.1179 51.6731 56.8799 50.5113 56.8799 50.5113C52.9159 52.9914 49.4417 52.6041 45.2853 50.9284C45.2466 50.9284 45.2291 50.911 45.2091 50.8911V50.8837C45.1891 50.8651 45.1716 50.8465 45.1329 50.8465H45.0579C44.8031 50.6801 44.6332 50.5982 44.6332 50.5982C44.6332 50.5982 45.394 51.76 47.3491 52.3409C46.8356 52.9231 46.3272 53.5847 46.3272 53.5847C42.8467 53.5028 41.5774 51.343 41.5774 51.343C41.5774 46.5318 43.8673 42.6293 43.8673 42.6293Z" fill="#5C6BC0"/>
<path d="M53.6259 49.854C54.5141 49.854 55.2375 49.1089 55.2375 48.1901C55.2375 47.2774 54.5179 46.5323 53.6259 46.5323V46.5361C52.7414 46.5361 52.0168 47.2786 52.0143 48.1975C52.0143 49.1089 52.7376 49.854 53.6259 49.854Z" fill="#5C6BC0"/>
<path d="M47.8559 49.854C48.7441 49.854 49.4674 49.1089 49.4674 48.1901C49.4674 47.2774 48.7491 46.5323 47.8608 46.5323L47.8559 46.5361C46.9676 46.5361 46.2443 47.2786 46.2443 48.1975C46.2443 49.1089 46.9676 49.854 47.8559 49.854Z" fill="#5C6BC0"/>
<defs>
<filter id="filter0_dd_1_356" x="0" y="0" width="101.415" height="103.257" filterUnits="userSpaceOnUse" color-interpolation-filters="sRGB">
<feFlood flood-opacity="0" result="BackgroundImageFix"/>
<feColorMatrix in="SourceAlpha" type="matrix" values="0 0 0 0 0 0 0 0 0 0 0 0 0 0 0 0 0 0 127 0" result="hardAlpha"/>
<feMorphology radius="1" operator="erode" in="SourceAlpha" result="effect1_dropShadow_1_356"/>
<feOffset dy="4"/>
<feGaussianBlur stdDeviation="3"/>
<feColorMatrix type="matrix" values="0 0 0 0 0 0 0 0 0 0 0 0 0 0 0 0 0 0 0.1 0"/>
<feBlend mode="normal" in2="BackgroundImageFix" result="effect1_dropShadow_1_356"/>
<feColorMatrix in="SourceAlpha" type="matrix" values="0 0 0 0 0 0 0 0 0 0 0 0 0 0 0 0 0 0 127 0" result="hardAlpha"/>
<feOffset dy="2"/>
<feGaussianBlur stdDeviation="2.5"/>
<feColorMatrix type="matrix" values="0 0 0 0 0 0 0 0 0 0 0 0 0 0 0 0 0 0 0.06 0"/>
<feBlend mode="normal" in2="effect1_dropShadow_1_356" result="effect2_dropShadow_1_356"/>
<feBlend mode="normal" in="SourceGraphic" in2="effect2_dropShadow_1_356" result="shape"/>
</filter>
</defs>
</svg>
